
<svg width="161px" height="17px" viewBox="0 0 161 17" version="1.1" xmlns="http://www.w3.org/2000/svg" xmlns:xlink="http://www.w3.org/1999/xlink">
    <defs>
        <polygon id="path-1" points="0 0.53805 7.52071246 0.53805 7.52071246 7.84987143 0 7.84987143"></polygon>
        <polygon id="path-3" points="0.525307844 0.586378571 6.14472185 0.586378571 6.14472185 8.5357 0.525307844 8.5357"></polygon>
    </defs>
    <g id="SWAT-950" stroke="none" stroke-width="1" fill="none" fill-rule="evenodd">
        <g id="Seller-info-domoteka-point_1" transform="translate(-502.000000, -368.000000)">
            <g id="pop-up" transform="translate(57.000000, 27.000000)">
                <g id="logo" transform="translate(445.000000, 341.000000)">
                    <polygon id="Fill-1" fill="#000000" points="40.4761905 14.5714286 42.9047619 14.5714286 42.9047619 6.47619048 40.4761905 6.47619048"></polygon>
                    <polygon id="Fill-2" fill="#000000" points="37.4179767 6.47619048 35.2146004 12.3663893 33.0112241 6.47619048 30.7619048 6.47619048 33.7903671 14.5714286 34.3901437 14.5714286 36.0396865 14.5714286 36.6388336 14.5714286 39.6666667 6.47619048"></polygon>
                    <g id="Group-45">
                        <path d="M50.3823484,8.39745357 L50.3823484,6.644025 L47.708667,6.644025 L47.708667,4.451025 L45.4783096,4.451025 L45.4783096,6.644025 L43.712506,6.644025 L43.712506,8.39745357 L45.4783096,8.39745357 L45.4783096,11.8193107 C45.4783096,13.5836679 46.3849386,14.7621321 48.7020876,14.7621321 C49.5974774,14.7621321 50.3823484,14.4421679 50.3823484,14.4421679 L50.1119831,12.7251679 C50.1119831,12.7251679 49.671781,12.853275 49.1310505,12.853275 C48.4691863,12.853275 47.708667,12.5752036 47.708667,11.684525 L47.708667,8.39745357 L50.3823484,8.39745357 Z" id="Fill-3" fill="#000000"></path>
                        <path d="M24.5688346,10.6208714 L25.9525053,6.95858571 L27.3368004,10.6208714 L24.5688346,10.6208714 Z M28.8384828,14.59705 L31.2149497,14.59705 L26.8148019,2.94840714 L26.4595182,2.94840714 L25.6421784,2.94840714 L25.0908331,2.94840714 L20.6919341,14.59705 L23.0665278,14.59705 L23.906346,12.3743 L27.9986646,12.3743 L28.8384828,14.59705 Z" id="Fill-5" fill="#000000" fill-rule="nonzero"></path>
                        <path d="M55.5007437,12.7796286 C54.2563142,12.7796286 53.2472836,11.8203429 53.2472836,10.6364143 C53.2472836,9.4537 54.2563142,8.49502143 55.5007437,8.49502143 C56.7451732,8.49502143 57.7529551,9.4537 57.7529551,10.6364143 C57.7529551,11.8203429 56.7451732,12.7796286 55.5007437,12.7796286 M55.5007437,6.44166429 C53.0818176,6.44166429 51.1193279,8.30802143 51.1193279,10.6072714 C51.1193279,12.90895 53.0818176,14.7734857 55.5007437,14.7734857 C57.9190455,14.7734857 59.8815352,12.90895 59.8815352,10.6072714 C59.8815352,8.30802143 57.9190455,6.44166429 55.5007437,6.44166429" id="Fill-7" fill="#000000" fill-rule="nonzero"></path>
                        <path d="M42.8239846,4.31581429 C42.8239846,5.0881 42.1796037,5.71467143 41.3841179,5.71467143 C40.5905053,5.71467143 39.9473731,5.0881 39.9473731,4.31581429 C39.9473731,3.54292143 40.5905053,2.91635 41.3841179,2.91635 C42.1796037,2.91635 42.8239846,3.54292143 42.8239846,4.31581429" id="Fill-9" fill="#000000"></path>
                        <g id="Group-13">
                            <g id="Fill-11-Clipped">
                                <mask id="mask-2" fill="white">
                                    <use xlink:href="#path-1"></use>
                                </mask>
                                <g id="path-1"></g>
                                <path d="M7.52071246,4.19426429 C7.52071246,6.21301429 5.83732966,7.84987143 3.76057477,7.84987143 C1.68381988,7.84987143 -0.000187320044,6.21301429 -0.000187320044,4.19426429 C-0.000187320044,2.17490714 1.68381988,0.53805 3.76057477,0.53805 C5.83732966,0.53805 7.52071246,2.17490714 7.52071246,4.19426429" id="Fill-11" fill="#00AAFF" mask="url(#mask-2)"></path>
                            </g>
                        </g>
                        <path d="M16.9312344,12.5514036 C16.9312344,15.0085107 14.8825775,16.9999393 12.3562545,16.9999393 C9.82868272,16.9999393 7.78065024,15.0085107 7.78065024,12.5514036 C7.78065024,10.0942964 9.82868272,8.103475 12.3562545,8.103475 C14.8825775,8.103475 16.9312344,10.0942964 16.9312344,12.5514036" id="Fill-14" fill="#00AAFF"></path>
                        <path d="M15.3004261,4.19426429 C15.3004261,5.77526429 13.9823174,7.05694286 12.355755,7.05694286 C10.729817,7.05694286 9.41108391,5.77526429 9.41108391,4.19426429 C9.41108391,2.61326429 10.729817,1.33097857 12.355755,1.33097857 C13.9823174,1.33097857 15.3004261,2.61326429 15.3004261,4.19426429" id="Fill-16" fill="#00AAFF"></path>
                        <path d="M5.88959195,12.5514036 C5.88959195,13.6946536 4.93613293,14.6211536 3.76038745,14.6211536 C2.58464197,14.6211536 1.63118295,13.6946536 1.63118295,12.5514036 C1.63118295,11.4069393 2.58464197,10.4810464 3.76038745,10.4810464 C4.93613293,10.4810464 5.88959195,11.4069393 5.88959195,12.5514036" id="Fill-18" fill="#00AAFF"></path>
                        <polygon id="Fill-20" fill="#00AAFF" points="70.2899734 14.6070071 69.1716728 14.6070071 69.1716728 10.9902571 64.7159533 10.9902571 64.7159533 14.6070071 63.598277 14.6070071 63.598277 6.65768571 64.7159533 6.65768571 64.7159533 10.2021857 69.1716728 10.2021857 69.1716728 6.65768571 70.2899734 6.65768571"></polygon>
                        <polygon id="Fill-22" fill="#00AAFF" points="76.9239128 6.65780714 76.9239128 7.53391429 72.9521035 7.53391429 72.9521035 10.1749857 76.169013 10.1749857 76.169013 11.0183071 72.9521035 11.0183071 72.9521035 13.7304143 76.9295324 13.7304143 76.9239128 14.6071286 71.8344272 14.6071286 71.8344272 6.65780714"></polygon>
                        <path d="M80.9355589,7.50628929 C80.8893532,8.41639643 80.8231668,9.213575 80.7363752,9.89721786 C80.650208,10.5814679 80.5490552,11.1746464 80.4341655,11.6755393 C80.3186515,12.1764321 80.1900251,12.596575 80.0476618,12.9341464 C79.905923,13.2729321 79.7535694,13.5491821 79.5924741,13.7641107 L83.6673095,13.7641107 L83.6673095,7.50628929 L80.9355589,7.50628929 Z M84.7912298,6.65811071 L84.7912298,13.7641107 L86.1399341,13.7641107 L86.1399341,16.2212179 C86.1399341,16.3177536 86.1074653,16.3954679 86.0419033,16.4537536 C85.9769657,16.5132536 85.8907984,16.5430036 85.7827772,16.5430036 L85.1202886,16.5430036 L85.1202886,14.606825 L78.4629343,14.606825 L78.4629343,16.2212179 C78.4629343,16.3177536 78.4292167,16.3954679 78.3617815,16.4537536 C78.2949706,16.5132536 78.2088034,16.5430036 78.105153,16.5430036 L77.4364204,16.5430036 L77.4364204,13.7641107 L78.2781118,13.7641107 C78.3973723,13.7088607 78.5166327,13.6183964 78.6358931,13.4945393 C78.7545291,13.3712893 78.8687944,13.1933964 78.9786888,12.962075 C79.0885832,12.7313607 79.1909848,12.4399321 79.2871425,12.0883964 C79.3826757,11.7374679 79.4707161,11.3076107 79.5493905,10.798825 C79.628065,10.2906464 79.6961246,9.69564643 79.7535694,9.01503929 C79.8116386,8.33503929 79.855971,7.54878929 79.8865666,6.65811071 L84.7912298,6.65811071 Z" id="Fill-24" fill="#00AAFF" fill-rule="nonzero"></path>
                        <path d="M88.1366409,10.9843071 L88.1366409,13.7528786 L89.9236741,13.7528786 C90.2421182,13.7528786 90.5174786,13.7176643 90.7478823,13.6472357 C90.978286,13.5774143 91.1674792,13.4778429 91.315462,13.3503429 C91.4634449,13.22345 91.5714661,13.0716643 91.6407745,12.8955929 C91.7107073,12.7201286 91.7450493,12.5270571 91.7450493,12.3157714 C91.7450493,11.90595 91.5926957,11.5805214 91.2892372,11.3425214 C90.9857788,11.1039143 90.530591,10.9843071 89.9236741,10.9843071 L88.1366409,10.9843071 Z M88.1366409,10.2193071 L89.6120984,10.2193071 C89.9274205,10.2193071 90.2009078,10.1865214 90.433809,10.1197357 C90.6654615,10.05295 90.8577767,9.96005714 91.0101304,9.84227143 C91.1618596,9.72387857 91.2736272,9.57998571 91.3473064,9.41180714 C91.4203613,9.24423571 91.4565765,9.05966429 91.4565765,8.85991429 C91.4565765,8.39059286 91.3104668,8.04695 91.0182476,7.83141429 C90.7260283,7.61466429 90.2727138,7.50598571 89.658304,7.50598571 L88.1366409,7.50598571 L88.1366409,10.2193071 Z M87.0239598,14.6071286 L87.0239598,6.65780714 L89.658304,6.65780714 C90.1659414,6.65780714 90.6023971,6.70577143 90.9695444,6.8017 C91.3366916,6.89884286 91.6376525,7.03484286 91.8743002,7.21273571 C92.1103234,7.39002143 92.2851555,7.60737857 92.3956743,7.8642 C92.5074419,8.12102143 92.5630135,8.41062857 92.5630135,8.73241429 C92.5630135,8.92852143 92.5317935,9.11734286 92.4681047,9.29827143 C92.4044159,9.4792 92.3101315,9.64798571 92.1821294,9.80341429 C92.0560006,9.95884286 91.8955298,10.0972714 91.7013413,10.2193071 C91.5071529,10.3407357 91.2798712,10.4409143 91.0182476,10.5186286 C91.6220425,10.6333786 92.0772302,10.8428429 92.3844351,11.1458071 C92.69164,11.4487714 92.8458668,11.8482714 92.8458668,12.3437 C92.8458668,12.6800571 92.7809292,12.9878786 92.6523028,13.2647357 C92.5236763,13.5422 92.3357319,13.7802 92.087845,13.9805571 C91.8399582,14.1803071 91.5352509,14.3345214 91.1743476,14.4432 C90.8128199,14.5524857 90.4013402,14.6071286 89.9405329,14.6071286 L87.0239598,14.6071286 Z" id="Fill-26" fill="#00AAFF" fill-rule="nonzero"></path>
                        <path d="M99.3343209,6.99635 C99.3880193,6.91074286 99.4573278,6.83302857 99.5416218,6.76320714 C99.6265402,6.69277857 99.724571,6.65756429 99.8357142,6.65756429 L100.665542,6.65756429 L100.665542,14.6068857 L99.5472414,14.6068857 L99.5472414,8.95985 C99.5472414,8.80502857 99.5509878,8.6411 99.559105,8.46927857 C99.5665978,8.29745714 99.5834566,8.11531429 99.6109302,7.92224286 C99.5453682,8.08920714 99.4754354,8.24342143 99.4005073,8.38549286 C99.3255793,8.52817143 99.2512757,8.65324286 99.1788453,8.7601 L95.3050668,14.2687071 C95.2513684,14.3537071 95.1826843,14.4314214 95.0983903,14.5012429 C95.0134719,14.5722786 94.9154411,14.6068857 94.8042979,14.6068857 L93.9744701,14.6068857 L93.9744701,6.65756429 L95.0921463,6.65756429 L95.0921463,12.3106714 C95.0921463,12.4697429 95.0883999,12.6348857 95.0809071,12.8067071 C95.0727899,12.9791357 95.0553067,13.1631 95.0284575,13.3586 C95.0940195,13.1892071 95.1645767,13.0325643 95.2388804,12.8898857 C95.3138084,12.7478143 95.388112,12.6191 95.4611668,12.50435 L99.3343209,6.99635 Z" id="Fill-28" fill="#00AAFF"></path>
                        <path d="M102.52282,6.65780714 C102.642081,6.65780714 102.750726,6.68634286 102.848133,6.74402143 C102.946788,6.80109286 103.026711,6.87941429 103.087902,6.97959286 L105.157165,9.73662857 C105.275801,9.89934286 105.401929,10.0080214 105.534302,10.0608429 C105.666675,10.1148786 105.821526,10.1409857 105.998232,10.1409857 L106.81682,10.1409857 L106.81682,6.65780714 L107.871432,6.65780714 L107.871432,10.1409857 L108.69564,10.1409857 C108.869223,10.1409857 109.020328,10.1148786 109.151452,10.0608429 C109.281327,10.0080214 109.408081,9.89934286 109.531712,9.73662857 L111.600974,6.97959286 C111.662165,6.87941429 111.742713,6.80109286 111.842617,6.74402143 C111.942521,6.68634286 112.049918,6.65780714 112.166056,6.65780714 L113.041465,6.65780714 L110.632529,9.8362 C110.524508,9.99162857 110.413365,10.1197357 110.297851,10.2193071 C110.182961,10.3188786 110.042471,10.3965929 109.877005,10.45245 C110.066198,10.5077 110.232289,10.5914857 110.379023,10.7050214 C110.524508,10.81795 110.659379,10.9703429 110.782385,11.1622 L113.231907,14.6071286 L112.488247,14.6071286 C112.326527,14.6071286 112.187286,14.5725214 112.067401,14.5045214 C111.948765,14.4359143 111.851983,14.3424143 111.779552,14.2246286 L109.687188,11.4062714 C109.583537,11.2508429 109.465526,11.1391286 109.332528,11.0711286 C109.200155,11.0019143 109.031567,10.9685214 108.828637,10.9685214 L107.871432,10.9685214 L107.871432,14.6071286 L106.81682,14.6071286 L106.81682,10.9685214 L105.865859,10.9685214 C105.657933,10.9685214 105.488721,11.0019143 105.355724,11.0711286 C105.223351,11.1391286 105.104715,11.2508429 105.001064,11.4062714 L102.9087,14.2246286 C102.839391,14.3424143 102.745731,14.4359143 102.626471,14.5045214 C102.50721,14.5725214 102.36672,14.6071286 102.205625,14.6071286 L101.456345,14.6071286 L103.912111,11.1622 C104.034493,10.9703429 104.168115,10.81795 104.312351,10.7050214 C104.456588,10.5914857 104.620805,10.5077 104.805003,10.45245 C104.643908,10.3965929 104.505291,10.3188786 104.389777,10.2193071 C104.275511,10.1197357 104.163744,9.99162857 104.055723,9.8362 L101.652406,6.65780714 L102.52282,6.65780714 Z" id="Fill-30" fill="#00AAFF"></path>
                        <path d="M119.382811,6.99635 C119.437133,6.91074286 119.505817,6.83302857 119.590111,6.76320714 C119.67503,6.69277857 119.773061,6.65756429 119.884204,6.65756429 L120.714656,6.65756429 L120.714656,14.6068857 L119.595731,14.6068857 L119.595731,8.95985 C119.595731,8.80502857 119.600102,8.6411 119.607595,8.46927857 C119.615087,8.29745714 119.632571,8.11531429 119.65942,7.92224286 C119.593858,8.08920714 119.524549,8.24342143 119.449621,8.38549286 C119.374069,8.52817143 119.30039,8.65324286 119.227335,8.7601 L115.353556,14.2687071 C115.299858,14.3537071 115.231174,14.4314214 115.14688,14.5012429 C115.061962,14.5722786 114.963931,14.6068857 114.852788,14.6068857 L114.02296,14.6068857 L114.02296,6.65756429 L115.140636,6.65756429 L115.140636,12.3106714 C115.140636,12.4697429 115.13689,12.6348857 115.129397,12.8067071 C115.12128,12.9791357 115.104421,13.1631 115.077572,13.3586 C115.142509,13.1892071 115.213066,13.0325643 115.28737,12.8898857 C115.362298,12.7478143 115.436602,12.6191 115.509657,12.50435 L119.382811,6.99635 Z" id="Fill-32" fill="#00AAFF"></path>
                        <path d="M126.454892,12.0142036 C126.496726,12.1119536 126.53981,12.2090964 126.581645,12.305025 C126.620358,12.2048464 126.660319,12.1058821 126.702154,12.0081321 C126.745238,11.9103821 126.790819,11.8168821 126.841395,11.7276321 L129.642454,6.84073929 C129.688036,6.75573929 129.739236,6.70413214 129.795432,6.68591786 C129.85038,6.66709643 129.92843,6.65798929 130.028334,6.65798929 L130.852542,6.65798929 L130.852542,14.6073107 L129.873482,14.6073107 L129.873482,8.76538214 C129.873482,8.68766786 129.875356,8.60509643 129.878478,8.51584643 C129.882848,8.42781071 129.888468,8.33673929 129.895961,8.24445357 L127.066179,13.2151321 C126.97689,13.3814893 126.843268,13.4646679 126.662192,13.4646679 L126.501097,13.4646679 C126.320646,13.4646679 126.185775,13.3814893 126.09711,13.2151321 L123.204264,8.22806071 C123.216128,8.32398929 123.224245,8.41809643 123.229865,8.51038214 C123.236109,8.603275 123.238606,8.68766786 123.238606,8.76538214 L123.238606,14.6073107 L122.258923,14.6073107 L122.258923,6.65798929 L123.083131,6.65798929 C123.183035,6.65798929 123.259836,6.66709643 123.313534,6.68591786 C123.367233,6.70413214 123.419058,6.75573929 123.469634,6.84073929 L126.322519,11.7337036 C126.3681,11.8229536 126.412432,11.9158464 126.454892,12.0142036" id="Fill-34" fill="#00AAFF"></path>
                        <path d="M138.898999,10.6356857 C138.898999,10.1469357 138.829691,9.70918571 138.691698,9.32061429 C138.553082,8.93204286 138.357644,8.60418571 138.104138,8.33582857 C137.850007,8.06807857 137.542802,7.86165 137.181899,7.71715 C136.819747,7.57325714 136.416384,7.50100714 135.971187,7.50100714 C135.529112,7.50100714 135.127622,7.57325714 134.766719,7.71715 C134.405816,7.86165 134.097362,8.06807857 133.841358,8.33582857 C133.585978,8.60418571 133.388668,8.93204286 133.250675,9.32061429 C133.112059,9.70918571 133.04275,10.1469357 133.04275,10.6356857 C133.04275,11.1232214 133.112059,11.5609714 133.250675,11.9471143 C133.388668,12.3338643 133.585978,12.6611143 133.841358,12.9288643 C134.097362,13.1978286 134.405816,13.4024357 134.766719,13.5445071 C135.127622,13.6871857 135.529112,13.7588286 135.971187,13.7588286 C136.416384,13.7588286 136.819747,13.6871857 137.181899,13.5445071 C137.542802,13.4024357 137.850007,13.1978286 138.104138,12.9288643 C138.357644,12.6611143 138.553082,12.3338643 138.691698,11.9471143 C138.829691,11.5609714 138.898999,11.1232214 138.898999,10.6356857 M140.046022,10.6356857 C140.046022,11.2306857 139.947991,11.7771143 139.75193,12.2743643 C139.555868,12.7722214 139.279883,13.2002571 138.922102,13.5584714 C138.564321,13.9172929 138.135358,14.1953643 137.633965,14.3932929 C137.132571,14.5918286 136.578104,14.6901857 135.971187,14.6901857 C135.36427,14.6901857 134.810427,14.5918286 134.310907,14.3932929 C133.812011,14.1953643 133.383673,13.9172929 133.025267,13.5584714 C132.66811,13.2002571 132.391501,12.7722214 132.196064,12.2743643 C132.000002,11.7771143 131.901971,11.2306857 131.901971,10.6356857 C131.901971,10.0400786 132.000002,9.49304286 132.196064,8.99579286 C132.391501,8.49854286 132.66811,8.06929286 133.025267,7.70925714 C133.383673,7.34861429 133.812011,7.06872143 134.310907,6.86897143 C134.810427,6.66922143 135.36427,6.56904286 135.971187,6.56904286 C136.578104,6.56904286 137.132571,6.66922143 137.633965,6.86897143 C138.135358,7.06872143 138.564321,7.34861429 138.922102,7.70925714 C139.279883,8.06929286 139.555868,8.49854286 139.75193,8.99579286 C139.947991,9.49304286 140.046022,10.0400786 140.046022,10.6356857" id="Fill-36" fill="#00AAFF" fill-rule="nonzero"></path>
                        <path d="M147.107676,12.9652321 C147.168867,12.9652321 147.22319,12.9895179 147.269395,13.0374821 L147.712719,13.4976964 C147.374295,13.8747321 146.964688,14.1685893 146.482651,14.3792679 C146.000614,14.5905536 145.4168,14.6961964 144.733082,14.6961964 C144.141775,14.6961964 143.603542,14.5972321 143.119008,14.3986964 C142.635097,14.201375 142.221745,13.9239107 141.879573,13.5669107 C141.538026,13.2099107 141.272656,12.781875 141.084712,12.2828036 C140.896143,11.7837321 140.802483,11.2342679 140.802483,10.635625 C140.802483,10.036375 140.899889,9.48691071 141.096576,8.98783929 C141.292013,8.48816071 141.567373,8.05951786 141.923281,7.70069643 C142.278565,7.341875 142.704406,7.06380357 143.20018,6.865875 C143.695329,6.66794643 144.242928,6.56898214 144.842352,6.56898214 C145.430537,6.56898214 145.949413,6.65944643 146.398357,6.84098214 C146.847925,7.02191071 147.244419,7.26780357 147.585966,7.57866071 L147.21757,8.07226786 C147.194467,8.10930357 147.164496,8.14026786 147.127657,8.16394643 C147.090817,8.18823214 147.042114,8.19976786 146.980923,8.19976786 C146.912239,8.19976786 146.82732,8.16394643 146.727416,8.09169643 C146.627512,8.01944643 146.496388,7.93930357 146.335293,7.85066071 C146.174198,7.76201786 145.972516,7.68126786 145.730249,7.609625 C145.487982,7.537375 145.190143,7.50094643 144.836732,7.50094643 C144.410267,7.50094643 144.020017,7.57198214 143.666607,7.71466071 C143.313196,7.85673214 143.009113,8.06316071 142.753109,8.33333929 C142.497105,8.60291071 142.29917,8.93198214 142.156183,9.32055357 C142.014444,9.709125 141.943262,10.146875 141.943262,10.635625 C141.943262,11.1310536 142.017566,11.5724464 142.164924,11.9610179 C142.313531,12.3489821 142.514588,12.6774464 142.769968,12.9458036 C143.025972,13.2135536 143.327557,13.4181607 143.675348,13.5590179 C144.023139,13.6992679 144.399028,13.7696964 144.80239,13.7696964 C145.048404,13.7696964 145.270066,13.7557321 145.468001,13.7278036 C145.665936,13.7004821 145.847636,13.6567679 146.0156,13.5972679 C146.182939,13.5377679 146.338415,13.4630893 146.482651,13.3732321 C146.626263,13.2821607 146.769251,13.1740893 146.912239,13.0484107 C146.977176,12.9931607 147.042114,12.9652321 147.107676,12.9652321" id="Fill-38" fill="#00AAFF"></path>
                        <polygon id="Fill-40" fill="#00AAFF" points="154.551712 6.65780714 154.551712 7.56184286 151.877406 7.56184286 151.877406 14.6071286 150.765349 14.6071286 150.765349 7.56184286 148.085424 7.56184286 148.085424 6.65780714"></polygon>
                        <g id="Group-44" transform="translate(154.851237, 6.071429)">
                            <g id="Fill-42-Clipped">
                                <mask id="mask-4" fill="white">
                                    <use xlink:href="#path-3"></use>
                                </mask>
                                <g id="path-3"></g>
                                <path d="M1.63736451,4.86309286 L1.63736451,7.68145 L3.23957529,7.68145 C3.55864376,7.68145 3.83275543,7.64623571 4.06066148,7.57580714 C4.28981633,7.50598571 4.47588758,7.40823571 4.62012401,7.28437857 C4.76436045,7.16112857 4.86988407,7.01116429 4.93731929,6.8357 C5.0041301,6.66023571 5.03847211,6.46716429 5.03847211,6.25587857 C5.03847211,6.03427143 5.0041301,5.83695 4.93731929,5.66512857 C4.86988407,5.4927 4.76436045,5.34698571 4.62012401,5.22737857 C4.47588758,5.10655714 4.29044073,5.01609286 4.06378348,4.95477143 C3.83712623,4.89405714 3.56426336,4.86309286 3.24581929,4.86309286 L1.63736451,4.86309286 Z M1.63736451,0.586378571 L1.63736451,4.00945 L3.24581929,4.00945 C3.74846141,4.00945 4.18304391,4.06166429 4.548318,4.16730714 C4.91296768,4.27234286 5.21392855,4.42048571 5.44995181,4.61112857 C5.68659946,4.80116429 5.86143151,5.02762857 5.97507233,5.29052143 C6.08746436,5.55341429 6.14490917,5.83937857 6.14490917,6.15023571 C6.14490917,6.51695 6.07997156,6.84723571 5.95196953,7.14048571 C5.8227187,7.43434286 5.63477425,7.68509286 5.38688739,7.89212857 C5.13900054,8.09977143 4.83429326,8.25823571 4.47338998,8.36873571 C4.11186229,8.48045 3.7003826,8.5357 3.23957529,8.5357 L0.525307844,8.5357 L0.525307844,0.586378571 L1.63736451,0.586378571 Z" id="Fill-42" fill="#00AAFF" fill-rule="nonzero" mask="url(#mask-4)"></path>
                            </g>
                        </g>
                    </g>
                </g>
            </g>
        </g>
    </g>
</svg>